<?xml version="1.0" encoding="UTF-8" standalone="no" ?>
<!DOCTYPE svg PUBLIC "-//W3C//DTD SVG 1.1//EN" "http://www.w3.org/Graphics/SVG/1.1/DTD/svg11.dtd">
<svg xmlns="http://www.w3.org/2000/svg" xmlns:xlink="http://www.w3.org/1999/xlink" version="1.1" width="1080" height="1080" viewBox="0 0 1080 1080" xml:space="preserve">
<desc>Created with Fabric.js 5.2.4</desc>
<defs>
</defs>
<g transform="matrix(1 0 0 1 540 540)" id="f07625ce-009c-411d-8490-763a1e96fcea"  >
</g>
<g transform="matrix(1 0 0 1 540 540)" id="107cb5d0-5266-4a5d-b804-bde99543446b"  >
<rect style="stroke: none; stroke-width: 1; stroke-dasharray: none; stroke-linecap: butt; stroke-dashoffset: 0; stroke-linejoin: miter; stroke-miterlimit: 4; fill: rgb(255,255,255); fill-rule: nonzero; opacity: 1; visibility: hidden;" vector-effect="non-scaling-stroke"  x="-540" y="-540" rx="0" ry="0" width="1080" height="1080" />
</g>
<g transform="matrix(11.85 0 0 11.85 539.39 97.22)"  >
<path style="stroke: none; stroke-width: 1; stroke-dasharray: none; stroke-linecap: butt; stroke-dashoffset: 0; stroke-linejoin: miter; stroke-miterlimit: 10; fill: rgb(255,141,0); fill-rule: nonzero; opacity: 1;" vector-effect="non-scaling-stroke"  transform=" translate(-45, -7.7)" d="M 45 13.229 C 44.448 13.229 44 12.780999999999999 44 12.229 L 44 3.177 C 44 2.625 44.448 2.177 45 2.177 C 45.552 2.177 46 2.625 46 3.177 L 46 12.23 C 46 12.782 45.552 13.229 45 13.229 z" stroke-linecap="round" />
</g>
<g transform="matrix(11.85 0 0 11.85 71.42 565.2)"  >
<path style="stroke: none; stroke-width: 1; stroke-dasharray: none; stroke-linecap: butt; stroke-dashoffset: 0; stroke-linejoin: miter; stroke-miterlimit: 10; fill: rgb(255,141,0); fill-rule: nonzero; opacity: 1;" vector-effect="non-scaling-stroke"  transform=" translate(-5.53, -47.18)" d="M 10.053 48.177 L 1 48.177 C 0.44799999999999995 48.177 0 47.73 0 47.177 C 0 46.624 0.448 46.177 1 46.177 L 10.053 46.177 C 10.605 46.177 11.053 46.624 11.053 47.177 C 11.053 47.73 10.605 48.177 10.053 48.177 z" stroke-linecap="round" />
</g>
<g transform="matrix(11.85 0 0 11.85 1007.32 565.2)"  >
<path style="stroke: none; stroke-width: 1; stroke-dasharray: none; stroke-linecap: butt; stroke-dashoffset: 0; stroke-linejoin: miter; stroke-miterlimit: 10; fill: rgb(255,141,0); fill-rule: nonzero; opacity: 1;" vector-effect="non-scaling-stroke"  transform=" translate(-84.47, -47.18)" d="M 89 48.177 L 79.947 48.177 C 79.394 48.177 78.947 47.73 78.947 47.177 C 78.947 46.624 79.394 46.177 79.947 46.177 L 89 46.177 C 89.553 46.177 90 46.624 90 47.177 C 90 47.73 89.553 48.177 89 48.177 z" stroke-linecap="round" />
</g>
<g transform="matrix(11.85 0 0 11.85 870.26 234.29)"  >
<path style="stroke: none; stroke-width: 1; stroke-dasharray: none; stroke-linecap: butt; stroke-dashoffset: 0; stroke-linejoin: miter; stroke-miterlimit: 10; fill: rgb(255,141,0); fill-rule: nonzero; opacity: 1;" vector-effect="non-scaling-stroke"  transform=" translate(-72.91, -19.26)" d="M 69.711 23.465 C 69.455 23.465 69.199 23.367 69.004 23.172 C 68.613 22.781 68.613 22.149 69.004 21.758 L 75.405 15.357 C 75.796 14.966 76.428 14.966 76.819 15.357 C 77.21000000000001 15.748 77.21000000000001 16.38 76.819 16.771 L 70.418 23.172 C 70.223 23.368 69.967 23.465 69.711 23.465 z" stroke-linecap="round" />
</g>
<g transform="matrix(11.85 0 0 11.85 208.49 234.29)"  >
<path style="stroke: none; stroke-width: 1; stroke-dasharray: none; stroke-linecap: butt; stroke-dashoffset: 0; stroke-linejoin: miter; stroke-miterlimit: 10; fill: rgb(255,141,0); fill-rule: nonzero; opacity: 1;" vector-effect="non-scaling-stroke"  transform=" translate(-17.09, -19.26)" d="M 20.289 23.465 C 20.033 23.465 19.777 23.367 19.582 23.172 L 13.181000000000001 16.771 C 12.790000000000001 16.380000000000003 12.790000000000001 15.748000000000001 13.181000000000001 15.357000000000001 C 13.572000000000001 14.966000000000001 14.204 14.966000000000001 14.595 15.357000000000001 L 20.996000000000002 21.758000000000003 C 21.387 22.149 21.387 22.781000000000002 20.996000000000002 23.172000000000004 C 20.8 23.368 20.544 23.465 20.289 23.465 z" stroke-linecap="round" />
</g>
<g transform="matrix(11.85 0 0 11.85 539.27 479.63)"  >
<path style="stroke: none; stroke-width: 1; stroke-dasharray: none; stroke-linecap: butt; stroke-dashoffset: 0; stroke-linejoin: miter; stroke-miterlimit: 10; fill: rgb(255,141,0); fill-rule: nonzero; opacity: 1;" vector-effect="non-scaling-stroke"  transform=" translate(-45, -39.97)" d="M 68.692 59.431 C 70.594 55.760999999999996 71.67599999999999 51.596 71.67599999999999 47.175999999999995 C 71.67599999999999 32.443 59.73299999999999 20.499999999999996 44.999999999999986 20.499999999999996 C 30.26699999999998 20.499999999999996 18.324 32.444 18.324 47.177 C 18.324 51.597 19.405 55.760999999999996 21.308 59.432 L 68.692 59.432 z" stroke-linecap="round" />
</g>
<g transform="matrix(11.85 0 0 11.85 539.24 932.06)"  >
<path style="stroke: none; stroke-width: 1; stroke-dasharray: none; stroke-linecap: butt; stroke-dashoffset: 0; stroke-linejoin: miter; stroke-miterlimit: 10; fill: rgb(0,119,255); fill-rule: nonzero; opacity: 1;" vector-effect="non-scaling-stroke"  transform=" translate(-45, -78.13)" d="M 45 87.823 L 32.841 87.823 C 29.919 87.823 27.542 85.446 27.542 82.52399999999999 C 27.542 79.60199999999998 29.919 77.22499999999998 32.841 77.22499999999998 L 72.628 77.22499999999998 C 74.447 77.22499999999998 75.927 75.74599999999998 75.927 73.92599999999997 L 75.927 73.73 C 75.927 71.911 74.44800000000001 70.431 72.628 70.431 L 13.073 70.431 C 12.521 70.431 12.073 69.984 12.073 69.431 C 12.073 68.878 12.521 68.431 13.073 68.431 L 72.628 68.431 C 75.55 68.431 77.927 70.80799999999999 77.927 73.73 L 77.927 73.926 C 77.927 76.848 75.55000000000001 79.22500000000001 72.628 79.22500000000001 L 32.841 79.22500000000001 C 31.022000000000002 79.22500000000001 29.542 80.70400000000001 29.542 82.52400000000002 C 29.542 84.34400000000002 31.022000000000002 85.82300000000002 32.841 85.82300000000002 L 45 85.82300000000002 C 45.552 85.82300000000002 46 86.27000000000002 46 86.82300000000002 C 46 87.37600000000002 45.552 87.823 45 87.823 z" stroke-linecap="round" />
</g>
<g transform="matrix(11.85 0 0 11.85 837.06 710.48)"  >
<path style="stroke: none; stroke-width: 1; stroke-dasharray: none; stroke-linecap: butt; stroke-dashoffset: 0; stroke-linejoin: miter; stroke-miterlimit: 10; fill: rgb(0,119,255); fill-rule: nonzero; opacity: 1;" vector-effect="non-scaling-stroke"  transform=" translate(-70.12, -59.43)" d="M 86.754 60.432 L 53.48 60.432 C 52.927 60.432 52.48 59.985 52.48 59.432 C 52.48 58.879000000000005 52.927 58.432 53.48 58.432 L 86.753 58.432 C 87.306 58.432 87.753 58.879000000000005 87.753 59.432 C 87.753 59.985 87.307 60.432 86.754 60.432 z" stroke-linecap="round" />
</g>
<g transform="matrix(11.85 0 0 11.85 291.8 598.2)"  >
<path style="stroke: none; stroke-width: 1; stroke-dasharray: none; stroke-linecap: butt; stroke-dashoffset: 0; stroke-linejoin: miter; stroke-miterlimit: 10; fill: rgb(0,119,255); fill-rule: nonzero; opacity: 1;" vector-effect="non-scaling-stroke"  transform=" translate(-24.12, -49.22)" d="M 38.112 60.432 L 3.246 60.432 C 2.694 60.432 2.246 59.985 2.246 59.432 C 2.246 58.879000000000005 2.694 58.432 3.246 58.432 L 38.112 58.432 C 41.359 58.432 44 55.79 44 52.543 L 44 39 C 44 38.448 44.448 38 45 38 C 45.552 38 46 38.448 46 39 L 46 52.543 C 46 56.893 42.461 60.432 38.112 60.432 z" stroke-linecap="round" />
</g>
<g transform="matrix(11.85 0 0 11.85 539.35 503.3)"  >
<path style="stroke: none; stroke-width: 1; stroke-dasharray: none; stroke-linecap: butt; stroke-dashoffset: 0; stroke-linejoin: miter; stroke-miterlimit: 10; fill: rgb(0,119,255); fill-rule: nonzero; opacity: 1;" vector-effect="non-scaling-stroke"  transform=" translate(-45, -41.96)" d="M 50.9 45.901 C 50.644 45.901 50.388 45.803000000000004 50.193 45.608000000000004 L 45 40.414 L 39.806 45.608000000000004 C 39.415 45.999 38.782999999999994 45.999 38.391999999999996 45.608000000000004 C 38.001 45.217000000000006 38.001 44.585 38.391999999999996 44.194 L 44.29299999999999 38.293000000000006 C 44.66799999999999 37.918000000000006 45.331999999999994 37.918000000000006 45.706999999999994 38.293000000000006 L 51.60699999999999 44.194 C 51.99799999999999 44.585 51.99799999999999 45.217000000000006 51.60699999999999 45.608000000000004 C 51.412 45.803 51.156 45.901 50.9 45.901 z" stroke-linecap="round" />
</g>
<g transform="matrix(0 0 0 0 0 0)"  >
<g style=""   >
</g>
</g>
<g transform="matrix(0 0 0 0 0 0)"  >
<g style=""   >
</g>
</g>
<g transform="matrix(0 0 0 0 0 0)"  >
<g style=""   >
</g>
</g>
<g transform="matrix(0 0 0 0 0 0)"  >
<g style=""   >
</g>
</g>
<g transform="matrix(0 0 0 0 0 0)"  >
<g style=""   >
</g>
</g>
<g transform="matrix(0 0 0 0 0 0)"  >
<g style=""   >
</g>
</g>
<g transform="matrix(0 0 0 0 0 0)"  >
<g style=""   >
</g>
</g>
<g transform="matrix(0 0 0 0 0 0)"  >
<g style=""   >
</g>
</g>
<g transform="matrix(0 0 0 0 0 0)"  >
<g style=""   >
</g>
</g>
<g transform="matrix(0 0 0 0 0 0)"  >
<g style=""   >
</g>
</g>
<g transform="matrix(NaN NaN NaN NaN 0 0)"  >
<g style=""   >
</g>
</g>
<g transform="matrix(NaN NaN NaN NaN 0 0)"  >
<g style=""   >
</g>
</g>
</svg>