<?xml version="1.0" encoding="UTF-8" standalone="no" ?>
<!DOCTYPE svg PUBLIC "-//W3C//DTD SVG 1.1//EN" "http://www.w3.org/Graphics/SVG/1.1/DTD/svg11.dtd">
<svg xmlns="http://www.w3.org/2000/svg" xmlns:xlink="http://www.w3.org/1999/xlink" version="1.1" width="1080" height="1080" viewBox="0 0 1080 1080" xml:space="preserve">
<desc>Created with Fabric.js 5.2.4</desc>
<defs>
</defs>
<rect x="0" y="0" width="100%" height="100%" fill="transparent"></rect>
<g transform="matrix(1 0 0 1 540 540)" id="936228f5-7688-4023-954c-8d1d5ec37427"  >
<rect style="stroke: none; stroke-width: 1; stroke-dasharray: none; stroke-linecap: butt; stroke-dashoffset: 0; stroke-linejoin: miter; stroke-miterlimit: 4; fill: rgb(255,255,255); fill-rule: nonzero; opacity: 1; visibility: hidden;" vector-effect="non-scaling-stroke"  x="-540" y="-540" rx="0" ry="0" width="1080" height="1080" />
</g>
<g transform="matrix(Infinity NaN NaN Infinity 0 0)" id="ecf085b4-dbd4-46f8-bb74-c49005df7bb3"  >
</g>
<g transform="matrix(3.28 0 0 3.28 540 540)"  >
<rect style="stroke: none; stroke-width: 1; stroke-dasharray: none; stroke-linecap: butt; stroke-dashoffset: 0; stroke-linejoin: miter; stroke-miterlimit: 4; fill: rgb(255,255,255); fill-rule: nonzero; opacity: 1; visibility: hidden;" vector-effect="non-scaling-stroke"  x="-540" y="-540" rx="0" ry="0" width="1080" height="1080" />
</g>
<g transform="matrix(3.28 0 0 3.28 540 540)"  >
<rect style="stroke: none; stroke-width: 1; stroke-dasharray: none; stroke-linecap: butt; stroke-dashoffset: 0; stroke-linejoin: miter; stroke-miterlimit: 4; fill: rgb(255,255,255); fill-rule: nonzero; opacity: 1; visibility: hidden;" vector-effect="non-scaling-stroke"  x="-540" y="-540" rx="0" ry="0" width="1080" height="1080" />
</g>
<g transform="matrix(9.23 0 0 9.23 540 195.84)"  >
<path style="stroke: none; stroke-width: 1; stroke-dasharray: none; stroke-linecap: butt; stroke-dashoffset: 0; stroke-linejoin: miter; stroke-miterlimit: 10; fill: rgb(255,141,0); fill-rule: nonzero; opacity: 1;" vector-effect="non-scaling-stroke"  transform=" translate(-45, -7.7)" d="M 45 13.229 C 44.448 13.229 44 12.780999999999999 44 12.229 L 44 3.177 C 44 2.625 44.448 2.177 45 2.177 C 45.552 2.177 46 2.625 46 3.177 L 46 12.23 C 46 12.782 45.552 13.229 45 13.229 z" stroke-linecap="round" />
</g>
<g transform="matrix(9.23 0 0 9.23 175.62 560.04)"  >
<path style="stroke: none; stroke-width: 1; stroke-dasharray: none; stroke-linecap: butt; stroke-dashoffset: 0; stroke-linejoin: miter; stroke-miterlimit: 10; fill: rgb(255,141,0); fill-rule: nonzero; opacity: 1;" vector-effect="non-scaling-stroke"  transform=" translate(-5.53, -47.18)" d="M 10.053 48.177 L 1 48.177 C 0.44799999999999995 48.177 0 47.73 0 47.177 C 0 46.624 0.448 46.177 1 46.177 L 10.053 46.177 C 10.605 46.177 11.053 46.624 11.053 47.177 C 11.053 47.73 10.605 48.177 10.053 48.177 z" stroke-linecap="round" />
</g>
<g transform="matrix(9.23 0 0 9.23 904.38 560.04)"  >
<path style="stroke: none; stroke-width: 1; stroke-dasharray: none; stroke-linecap: butt; stroke-dashoffset: 0; stroke-linejoin: miter; stroke-miterlimit: 10; fill: rgb(255,141,0); fill-rule: nonzero; opacity: 1;" vector-effect="non-scaling-stroke"  transform=" translate(-84.47, -47.18)" d="M 89 48.177 L 79.947 48.177 C 79.394 48.177 78.947 47.73 78.947 47.177 C 78.947 46.624 79.394 46.177 79.947 46.177 L 89 46.177 C 89.553 46.177 90 46.624 90 47.177 C 90 47.73 89.553 48.177 89 48.177 z" stroke-linecap="round" />
</g>
<g transform="matrix(9.23 0 0 9.23 797.62 302.54)"  >
<path style="stroke: none; stroke-width: 1; stroke-dasharray: none; stroke-linecap: butt; stroke-dashoffset: 0; stroke-linejoin: miter; stroke-miterlimit: 10; fill: rgb(255,141,0); fill-rule: nonzero; opacity: 1;" vector-effect="non-scaling-stroke"  transform=" translate(-72.91, -19.26)" d="M 69.711 23.465 C 69.455 23.465 69.199 23.367 69.004 23.172 C 68.613 22.781 68.613 22.149 69.004 21.758 L 75.405 15.357 C 75.796 14.966 76.428 14.966 76.819 15.357 C 77.21000000000001 15.748 77.21000000000001 16.38 76.819 16.771 L 70.418 23.172 C 70.223 23.368 69.967 23.465 69.711 23.465 z" stroke-linecap="round" />
</g>
<g transform="matrix(9.23 0 0 9.23 282.35 302.54)"  >
<path style="stroke: none; stroke-width: 1; stroke-dasharray: none; stroke-linecap: butt; stroke-dashoffset: 0; stroke-linejoin: miter; stroke-miterlimit: 10; fill: rgb(255,141,0); fill-rule: nonzero; opacity: 1;" vector-effect="non-scaling-stroke"  transform=" translate(-17.09, -19.26)" d="M 20.289 23.465 C 20.033 23.465 19.777 23.367 19.582 23.172 L 13.181000000000001 16.771 C 12.790000000000001 16.380000000000003 12.790000000000001 15.748000000000001 13.181000000000001 15.357000000000001 C 13.572000000000001 14.966000000000001 14.204 14.966000000000001 14.595 15.357000000000001 L 20.996000000000002 21.758000000000003 C 21.387 22.149 21.387 22.781000000000002 20.996000000000002 23.172000000000004 C 20.8 23.368 20.544 23.465 20.289 23.465 z" stroke-linecap="round" />
</g>
<g transform="matrix(9.23 0 0 9.23 540 493.49)"  >
<path style="stroke: none; stroke-width: 1; stroke-dasharray: none; stroke-linecap: butt; stroke-dashoffset: 0; stroke-linejoin: miter; stroke-miterlimit: 10; fill: rgb(255,141,0); fill-rule: nonzero; opacity: 1;" vector-effect="non-scaling-stroke"  transform=" translate(-45, -39.97)" d="M 68.692 59.431 C 70.594 55.760999999999996 71.67599999999999 51.596 71.67599999999999 47.175999999999995 C 71.67599999999999 32.443 59.73299999999999 20.499999999999996 44.999999999999986 20.499999999999996 C 30.26699999999998 20.499999999999996 18.324 32.444 18.324 47.177 C 18.324 51.597 19.405 55.760999999999996 21.308 59.432 L 68.692 59.432 z" stroke-linecap="round" />
</g>
<g transform="matrix(9.23 0 0 9.23 540 845.69)"  >
<path style="stroke: none; stroke-width: 1; stroke-dasharray: none; stroke-linecap: butt; stroke-dashoffset: 0; stroke-linejoin: miter; stroke-miterlimit: 10; fill: rgb(0,119,255); fill-rule: nonzero; opacity: 1;" vector-effect="non-scaling-stroke"  transform=" translate(-45, -78.13)" d="M 45 87.823 L 32.841 87.823 C 29.919 87.823 27.542 85.446 27.542 82.52399999999999 C 27.542 79.60199999999998 29.919 77.22499999999998 32.841 77.22499999999998 L 72.628 77.22499999999998 C 74.447 77.22499999999998 75.927 75.74599999999998 75.927 73.92599999999997 L 75.927 73.73 C 75.927 71.911 74.44800000000001 70.431 72.628 70.431 L 13.073 70.431 C 12.521 70.431 12.073 69.984 12.073 69.431 C 12.073 68.878 12.521 68.431 13.073 68.431 L 72.628 68.431 C 75.55 68.431 77.927 70.80799999999999 77.927 73.73 L 77.927 73.926 C 77.927 76.848 75.55000000000001 79.22500000000001 72.628 79.22500000000001 L 32.841 79.22500000000001 C 31.022000000000002 79.22500000000001 29.542 80.70400000000001 29.542 82.52400000000002 C 29.542 84.34400000000002 31.022000000000002 85.82300000000002 32.841 85.82300000000002 L 45 85.82300000000002 C 45.552 85.82300000000002 46 86.27000000000002 46 86.82300000000002 C 46 87.37600000000002 45.552 87.823 45 87.823 z" stroke-linecap="round" />
</g>
<g transform="matrix(9.23 0 0 9.23 540 673.24)"  >
<path style="stroke: none; stroke-width: 1; stroke-dasharray: none; stroke-linecap: butt; stroke-dashoffset: 0; stroke-linejoin: miter; stroke-miterlimit: 10; fill: rgb(0,119,255); fill-rule: nonzero; opacity: 1;" vector-effect="non-scaling-stroke"  transform=" translate(-45, -59.43)" d="M 86.754 60.432 L 3.246 60.432 C 2.694 60.432 2.246 59.985 2.246 59.432 C 2.246 58.879000000000005 2.694 58.432 3.246 58.432 L 86.75399999999999 58.432 C 87.30699999999999 58.432 87.75399999999999 58.879000000000005 87.75399999999999 59.432 C 87.75399999999999 59.985 87.307 60.432 86.754 60.432 z" stroke-linecap="round" />
</g>
<g transform="matrix(9.23 0 0 9.23 507.97 440.56)"  >
<path style="stroke: none; stroke-width: 1; stroke-dasharray: none; stroke-linecap: butt; stroke-dashoffset: 0; stroke-linejoin: miter; stroke-miterlimit: 10; fill: rgb(0,119,255); fill-rule: nonzero; opacity: 1;" vector-effect="non-scaling-stroke"  transform=" translate(-41.53, -34.21)" d="M 47 45.431 C 46.447 45.431 46 44.983 46 44.431 L 46 30.888 C 46 27.642 43.358 25 40.112 25 C 38.802 24.947 37.584 25.25 36.47 25.752 C 35.966 25.979 35.373999999999995 25.753999999999998 35.147999999999996 25.250999999999998 C 34.921 24.746999999999996 35.145999999999994 24.154999999999998 35.648999999999994 23.929 C 37.02499999999999 23.31 38.55499999999999 22.976 40.11399999999999 23 C 44.461 23 48 26.539 48 30.888 L 48 44.431 C 48 44.983 47.553 45.431 47 45.431 z" stroke-linecap="round" />
</g>
<g transform="matrix(9.23 0 0 9.23 558.45 507.52)"  >
<path style="stroke: none; stroke-width: 1; stroke-dasharray: none; stroke-linecap: butt; stroke-dashoffset: 0; stroke-linejoin: miter; stroke-miterlimit: 10; fill: rgb(0,119,255); fill-rule: nonzero; opacity: 1;" vector-effect="non-scaling-stroke"  transform=" translate(-47, -41.48)" d="M 47 45.431 C 46.744 45.431 46.488 45.333 46.293 45.138 L 40.391999999999996 39.238 C 40.001 38.847 40.001 38.214999999999996 40.391999999999996 37.824 C 40.782999999999994 37.433 41.415 37.433 41.806 37.824 L 47 43.017 L 52.193 37.824000000000005 C 52.583999999999996 37.43300000000001 53.216 37.43300000000001 53.607 37.824000000000005 C 53.998 38.215 53.998 38.84700000000001 53.607 39.23800000000001 L 47.707 45.138000000000005 C 47.512 45.333 47.256 45.431 47 45.431 z" stroke-linecap="round" />
</g>
<g transform="matrix(1 0 0 1 540 540)"  >
<g style="" vector-effect="non-scaling-stroke"   >
		<g transform="matrix(1 0 0 1 -495 -495)"  >
<rect style="stroke: none; stroke-width: 1; stroke-dasharray: none; stroke-linecap: butt; stroke-dashoffset: 0; stroke-linejoin: miter; stroke-miterlimit: 4; fill: rgb(255,255,255); fill-opacity: 0; fill-rule: nonzero; opacity: 1;" vector-effect="non-scaling-stroke"  x="-45" y="-45" rx="0" ry="0" width="90" height="90" />
</g>
		<g transform="matrix(1 0 0 1 0 0)"  >
<rect style="stroke: none; stroke-width: 1; stroke-dasharray: none; stroke-linecap: butt; stroke-dashoffset: 0; stroke-linejoin: miter; stroke-miterlimit: 4; fill: rgb(255,255,255); fill-rule: nonzero; opacity: 1; visibility: hidden;" vector-effect="non-scaling-stroke"  x="-540" y="-540" rx="0" ry="0" width="1080" height="1080" />
</g>
		<g transform="matrix(3.28 0 0 3.28 0 0)"  >
<rect style="stroke: none; stroke-width: 1; stroke-dasharray: none; stroke-linecap: butt; stroke-dashoffset: 0; stroke-linejoin: miter; stroke-miterlimit: 4; fill: rgb(255,255,255); fill-rule: nonzero; opacity: 1; visibility: hidden;" vector-effect="non-scaling-stroke"  x="-540" y="-540" rx="0" ry="0" width="1080" height="1080" />
</g>
		<g transform="matrix(3.28 0 0 3.28 0 0)"  >
<rect style="stroke: none; stroke-width: 1; stroke-dasharray: none; stroke-linecap: butt; stroke-dashoffset: 0; stroke-linejoin: miter; stroke-miterlimit: 4; fill: rgb(255,255,255); fill-rule: nonzero; opacity: 1; visibility: hidden;" vector-effect="non-scaling-stroke"  x="-540" y="-540" rx="0" ry="0" width="1080" height="1080" />
</g>
		<g transform="matrix(9.23 0 0 9.23 0 -344.13)"  >
<path style="stroke: none; stroke-width: 1; stroke-dasharray: none; stroke-linecap: butt; stroke-dashoffset: 0; stroke-linejoin: miter; stroke-miterlimit: 10; fill: rgb(255,141,0); fill-rule: nonzero; opacity: 1;" vector-effect="non-scaling-stroke"  transform=" translate(-45, -7.7)" d="M 45 13.229 C 44.448 13.229 44 12.780999999999999 44 12.229 L 44 3.177 C 44 2.625 44.448 2.177 45 2.177 C 45.552 2.177 46 2.625 46 3.177 L 46 12.23 C 46 12.782 45.552 13.229 45 13.229 z" stroke-linecap="round" />
</g>
		<g transform="matrix(9.23 0 0 9.23 -364.41 20.01)"  >
<path style="stroke: none; stroke-width: 1; stroke-dasharray: none; stroke-linecap: butt; stroke-dashoffset: 0; stroke-linejoin: miter; stroke-miterlimit: 10; fill: rgb(255,141,0); fill-rule: nonzero; opacity: 1;" vector-effect="non-scaling-stroke"  transform=" translate(-5.53, -47.18)" d="M 10.053 48.177 L 1 48.177 C 0.44799999999999995 48.177 0 47.73 0 47.177 C 0 46.624 0.448 46.177 1 46.177 L 10.053 46.177 C 10.605 46.177 11.053 46.624 11.053 47.177 C 11.053 47.73 10.605 48.177 10.053 48.177 z" stroke-linecap="round" />
</g>
		<g transform="matrix(9.23 0 0 9.23 364.41 20.01)"  >
<path style="stroke: none; stroke-width: 1; stroke-dasharray: none; stroke-linecap: butt; stroke-dashoffset: 0; stroke-linejoin: miter; stroke-miterlimit: 10; fill: rgb(255,141,0); fill-rule: nonzero; opacity: 1;" vector-effect="non-scaling-stroke"  transform=" translate(-84.47, -47.18)" d="M 89 48.177 L 79.947 48.177 C 79.394 48.177 78.947 47.73 78.947 47.177 C 78.947 46.624 79.394 46.177 79.947 46.177 L 89 46.177 C 89.553 46.177 90 46.624 90 47.177 C 90 47.73 89.553 48.177 89 48.177 z" stroke-linecap="round" />
</g>
		<g transform="matrix(9.23 0 0 9.23 257.63 -237.42)"  >
<path style="stroke: none; stroke-width: 1; stroke-dasharray: none; stroke-linecap: butt; stroke-dashoffset: 0; stroke-linejoin: miter; stroke-miterlimit: 10; fill: rgb(255,141,0); fill-rule: nonzero; opacity: 1;" vector-effect="non-scaling-stroke"  transform=" translate(-72.91, -19.26)" d="M 69.711 23.465 C 69.455 23.465 69.199 23.367 69.004 23.172 C 68.613 22.781 68.613 22.149 69.004 21.758 L 75.405 15.357 C 75.796 14.966 76.428 14.966 76.819 15.357 C 77.21000000000001 15.748 77.21000000000001 16.38 76.819 16.771 L 70.418 23.172 C 70.223 23.368 69.967 23.465 69.711 23.465 z" stroke-linecap="round" />
</g>
		<g transform="matrix(9.23 0 0 9.23 -257.66 -237.42)"  >
<path style="stroke: none; stroke-width: 1; stroke-dasharray: none; stroke-linecap: butt; stroke-dashoffset: 0; stroke-linejoin: miter; stroke-miterlimit: 10; fill: rgb(255,141,0); fill-rule: nonzero; opacity: 1;" vector-effect="non-scaling-stroke"  transform=" translate(-17.09, -19.26)" d="M 20.289 23.465 C 20.033 23.465 19.777 23.367 19.582 23.172 L 13.181000000000001 16.771 C 12.790000000000001 16.380000000000003 12.790000000000001 15.748000000000001 13.181000000000001 15.357000000000001 C 13.572000000000001 14.966000000000001 14.204 14.966000000000001 14.595 15.357000000000001 L 20.996000000000002 21.758000000000003 C 21.387 22.149 21.387 22.781000000000002 20.996000000000002 23.172000000000004 C 20.8 23.368 20.544 23.465 20.289 23.465 z" stroke-linecap="round" />
</g>
		<g transform="matrix(9.23 0 0 9.23 0 -46.55)"  >
<path style="stroke: none; stroke-width: 1; stroke-dasharray: none; stroke-linecap: butt; stroke-dashoffset: 0; stroke-linejoin: miter; stroke-miterlimit: 10; fill: rgb(255,141,0); fill-rule: nonzero; opacity: 1;" vector-effect="non-scaling-stroke"  transform=" translate(-45, -39.97)" d="M 68.692 59.431 C 70.594 55.760999999999996 71.67599999999999 51.596 71.67599999999999 47.175999999999995 C 71.67599999999999 32.443 59.73299999999999 20.499999999999996 44.999999999999986 20.499999999999996 C 30.26699999999998 20.499999999999996 18.324 32.444 18.324 47.177 C 18.324 51.597 19.405 55.760999999999996 21.308 59.432 L 68.692 59.432 z" stroke-linecap="round" />
</g>
		<g transform="matrix(9.23 0 0 9.23 0 305.66)"  >
<path style="stroke: none; stroke-width: 1; stroke-dasharray: none; stroke-linecap: butt; stroke-dashoffset: 0; stroke-linejoin: miter; stroke-miterlimit: 10; fill: rgb(0,119,255); fill-rule: nonzero; opacity: 1;" vector-effect="non-scaling-stroke"  transform=" translate(-45, -78.13)" d="M 45 87.823 L 32.841 87.823 C 29.919 87.823 27.542 85.446 27.542 82.52399999999999 C 27.542 79.60199999999998 29.919 77.22499999999998 32.841 77.22499999999998 L 72.628 77.22499999999998 C 74.447 77.22499999999998 75.927 75.74599999999998 75.927 73.92599999999997 L 75.927 73.73 C 75.927 71.911 74.44800000000001 70.431 72.628 70.431 L 13.073 70.431 C 12.521 70.431 12.073 69.984 12.073 69.431 C 12.073 68.878 12.521 68.431 13.073 68.431 L 72.628 68.431 C 75.55 68.431 77.927 70.80799999999999 77.927 73.73 L 77.927 73.926 C 77.927 76.848 75.55000000000001 79.22500000000001 72.628 79.22500000000001 L 32.841 79.22500000000001 C 31.022000000000002 79.22500000000001 29.542 80.70400000000001 29.542 82.52400000000002 C 29.542 84.34400000000002 31.022000000000002 85.82300000000002 32.841 85.82300000000002 L 45 85.82300000000002 C 45.552 85.82300000000002 46 86.27000000000002 46 86.82300000000002 C 46 87.37600000000002 45.552 87.823 45 87.823 z" stroke-linecap="round" />
</g>
		<g transform="matrix(9.23 0 0 9.23 0 133.26)"  >
<path style="stroke: none; stroke-width: 1; stroke-dasharray: none; stroke-linecap: butt; stroke-dashoffset: 0; stroke-linejoin: miter; stroke-miterlimit: 10; fill: rgb(0,119,255); fill-rule: nonzero; opacity: 1;" vector-effect="non-scaling-stroke"  transform=" translate(-45, -59.43)" d="M 86.754 60.432 L 3.246 60.432 C 2.694 60.432 2.246 59.985 2.246 59.432 C 2.246 58.879000000000005 2.694 58.432 3.246 58.432 L 86.75399999999999 58.432 C 87.30699999999999 58.432 87.75399999999999 58.879000000000005 87.75399999999999 59.432 C 87.75399999999999 59.985 87.307 60.432 86.754 60.432 z" stroke-linecap="round" />
</g>
		<g transform="matrix(9.23 0 0 9.23 -32.03 -99.39)"  >
<path style="stroke: none; stroke-width: 1; stroke-dasharray: none; stroke-linecap: butt; stroke-dashoffset: 0; stroke-linejoin: miter; stroke-miterlimit: 10; fill: rgb(0,119,255); fill-rule: nonzero; opacity: 1;" vector-effect="non-scaling-stroke"  transform=" translate(-41.53, -34.21)" d="M 47 45.431 C 46.447 45.431 46 44.983 46 44.431 L 46 30.888 C 46 27.642 43.358 25 40.112 25 C 38.802 24.947 37.584 25.25 36.47 25.752 C 35.966 25.979 35.373999999999995 25.753999999999998 35.147999999999996 25.250999999999998 C 34.921 24.746999999999996 35.145999999999994 24.154999999999998 35.648999999999994 23.929 C 37.02499999999999 23.31 38.55499999999999 22.976 40.11399999999999 23 C 44.461 23 48 26.539 48 30.888 L 48 44.431 C 48 44.983 47.553 45.431 47 45.431 z" stroke-linecap="round" />
</g>
		<g transform="matrix(9.23 0 0 9.23 18.45 -32.47)"  >
<path style="stroke: none; stroke-width: 1; stroke-dasharray: none; stroke-linecap: butt; stroke-dashoffset: 0; stroke-linejoin: miter; stroke-miterlimit: 10; fill: rgb(0,119,255); fill-rule: nonzero; opacity: 1;" vector-effect="non-scaling-stroke"  transform=" translate(-47, -41.48)" d="M 47 45.431 C 46.744 45.431 46.488 45.333 46.293 45.138 L 40.391999999999996 39.238 C 40.001 38.847 40.001 38.214999999999996 40.391999999999996 37.824 C 40.782999999999994 37.433 41.415 37.433 41.806 37.824 L 47 43.017 L 52.193 37.824000000000005 C 52.583999999999996 37.43300000000001 53.216 37.43300000000001 53.607 37.824000000000005 C 53.998 38.215 53.998 38.84700000000001 53.607 39.23800000000001 L 47.707 45.138000000000005 C 47.512 45.333 47.256 45.431 47 45.431 z" stroke-linecap="round" />
</g>
</g>
</g>
</svg>